<?xml version="1.0" encoding="UTF-8"?>
<svg id="Layer_1" xmlns="http://www.w3.org/2000/svg" version="1.1" viewBox="0 0 1959 328">
  <!-- Generator: Adobe Illustrator 29.1.0, SVG Export Plug-In . SVG Version: 2.1.0 Build 142)  -->
  <defs>
    <style>
      .st0 {
        fill: #0a192f;
      }

      .st1 {
        fill: #6a0572;
      }
    </style>
  </defs>
  <g>
    <path class="st0" d="M999.29,216.98c22.18-7.65,39.62-20.34,51.89-37.76,12.84-18.2,19.35-41.05,19.35-67.92,0-35.1-11.52-62.69-34.24-82.02C1013.69,10.05,981.65.29,941.07.29h-124.87v328.21h41.79v-102.5h83.08c5.02,0,11.54-.28,19.4-.84l67.57,103.34h47.93l-76.68-111.52ZM857.99,39.47h83.08c28.68,0,50.98,6.25,66.28,18.59,15.1,12.22,22.75,30.44,22.75,54.15s-7.66,43.05-22.77,55.57c-15.28,12.64-37.57,19.04-66.26,19.04h-83.08V39.47Z"/>
    <path class="st0" d="M1293.31,1.77l-.66-1.48h-41.41l-146.7,328.21h44.58l35.89-82.65h172l36.35,82.65h45.51L1293.31,1.77ZM1202.37,206.68l68.41-157.47,69.32,157.47h-137.73Z"/>
    <polygon class="st0" points="1508.74 39.47 1508.74 150.36 1659.16 150.36 1659.16 189.06 1508.74 189.06 1508.74 328.5 1466.94 328.5 1466.94 .29 1676.64 .29 1676.64 39.47 1508.74 39.47"/>
    <polygon class="st0" points="1958.5 .29 1958.5 39.47 1853.16 39.47 1853.16 328.5 1811.35 328.5 1811.35 39.47 1706.47 39.47 1706.47 .29 1958.5 .29"/>
  </g>
  <g>
    <path class="st1" d="M605.76.04v94.48l-40.52,43.89V40.01h-230.66c-42.66,0-77.35,34.32-77.35,76.5s34.69,76.51,77.35,76.51h43.41c6.92-13.12,20.79-21.52,35.78-21.52,22.26,0,40.37,17.91,40.37,39.93s-18.11,39.92-40.37,39.92c-13.71,0-26.61-7.04-34-18.47h-45.19c-64.89,0-117.67-52.2-117.67-116.37S269.69.14,334.58.14h230.66V.04h40.52Z"/>
    <path class="st1" d="M536.57,211.54c0,64.17-52.78,116.38-117.66,116.38h-236.51l36.85-39.88h199.66c42.65,0,77.34-34.33,77.34-76.51s-34.69-76.49-77.34-76.49h-48.54c-7.14,12.72-20.51,20.55-35.27,20.55-22.26,0-40.37-17.91-40.37-39.93s18.11-39.92,40.37-39.92c14.23,0,27.36,7.41,34.65,19.43h49.16c64.88,0,117.66,52.2,117.66,116.36Z"/>
    <path class="st1" d="M188.56-.08v247.84c0,15.41-4.52,30.3-13.06,43.08-14.7,22.03-39.4,35.2-66.09,35.2h-16.14C41.84,326.04,0,284.66,0,233.8v-6.46h39.29v4.28c0,14.63,5.71,28.43,16.07,38.89,10.35,10.43,24.17,16.34,38.91,16.63h.18c.35.04.67.04,1.02.04h.62c29.32,0,53.18-23.59,53.18-52.58V38.78H48.41V-.08h140.15Z"/>
  </g>
  <polygon class="st0" points="798.25 327.89 747.26 327.89 746.51 326.92 629.32 175.65 568.58 242.21 564.25 246.9 564.25 191.1 565.9 189.31 601.41 150.51 739.1 -.01 790.15 -.01 659.03 143.34 798.25 327.89"/>
</svg>